<svg width="24" height="24" viewBox="0 0 24 24" fill="none" xmlns="http://www.w3.org/2000/svg">
<g clipPath="url(#clip0_9_682)">
<path d="M10.0329 17.494C9.76312 17.4925 9.50478 17.3847 9.31394 17.194L5.29394 13.178C5.10629 12.9905 5.00083 12.7361 5.00073 12.4708C5.00064 12.2056 5.10593 11.9511 5.29344 11.7635C5.48094 11.5758 5.73531 11.4704 6.00058 11.4703C6.26585 11.4702 6.52029 11.5755 6.70793 11.763L10.0959 15.15C11.4489 13.879 14.8089 10.434 17.7909 7.30797C17.9741 7.11609 18.2259 7.00481 18.4911 6.99862C18.6224 6.99556 18.753 7.01839 18.8755 7.0658C18.998 7.11322 19.1099 7.1843 19.2049 7.27497C19.2999 7.36565 19.3762 7.47415 19.4292 7.59429C19.4823 7.71442 19.5112 7.84384 19.5143 7.97514C19.5173 8.10644 19.4945 8.23706 19.4471 8.35954C19.3997 8.48202 19.3286 8.59396 19.2379 8.68897C10.8469 17.489 10.5609 17.489 10.0439 17.494H10.0329Z" fill="#658391"/>
</g>
<defs>
<clipPath id="clip0_9_682">
<rect width="24" height="24" fill="white"/>
</clipPath>
</defs>
</svg>
