<svg width="556" height="128" viewBox="0 0 556 128" fill="none" xmlns="http://www.w3.org/2000/svg">
<g clip-path="url(#clip0_4243_1271)">
<path d="M508.545 127.4V58.918H517.178V63.089C517.178 65.029 516.984 66.678 516.984 66.678H517.178C517.178 66.678 521.349 57.754 533.668 57.754C546.86 57.754 555.202 68.23 555.202 83.459C555.202 99.076 545.793 109.164 532.989 109.164C522.222 109.164 517.954 101.113 517.954 101.113H517.76C517.76 101.113 517.954 102.859 517.954 105.381V127.4H508.545ZM517.663 83.653C517.663 92.383 522.513 101.113 531.534 101.113C539.294 101.113 545.696 94.711 545.696 83.556C545.696 72.886 539.973 65.999 531.825 65.999C524.453 65.999 517.663 71.14 517.663 83.653Z" fill="#85E1FF" style="fill:#85E1FF;fill:color(display-p3 0.5216 0.8824 1.0000);fill-opacity:1;"/>
<path d="M453.321 94.226C453.321 78.027 474.661 77.348 482.906 77.348H485.04V76.475C485.04 68.424 480.481 65.708 474.273 65.708C466.707 65.708 460.596 70.461 460.596 70.461L456.716 63.574C456.716 63.574 463.797 57.754 475.049 57.754C487.465 57.754 494.449 64.544 494.449 76.96V108H485.719V103.344C485.719 101.113 485.913 99.464 485.913 99.464H485.719C485.719 99.464 481.742 109.164 470.005 109.164C461.566 109.164 453.321 104.023 453.321 94.226ZM462.827 93.741C462.827 97.718 465.931 101.598 472.042 101.598C479.996 101.598 485.137 93.256 485.137 85.981V84.429H482.712C475.631 84.429 462.827 84.914 462.827 93.741Z" fill="#85E1FF" style="fill:#85E1FF;fill:color(display-p3 0.5216 0.8824 1.0000);fill-opacity:1;"/>
<path d="M398.852 108V58.918H407.97V65.417C407.97 67.357 407.776 69.006 407.776 69.006H407.97C409.91 64.738 415.73 57.754 426.4 57.754C437.943 57.754 443.278 64.059 443.278 76.572V108H433.869V78.706C433.869 71.819 432.414 66.387 424.557 66.387C417.088 66.387 411.074 71.334 409.037 78.415C408.455 80.355 408.261 82.586 408.261 85.011V108H398.852Z" fill="#85E1FF" style="fill:#85E1FF;fill:color(display-p3 0.5216 0.8824 1.0000);fill-opacity:1;"/>
<path d="M351.395 101.986L355.954 95.293C355.954 95.293 361.483 101.016 370.019 101.016C374.093 101.016 378.167 98.882 378.167 94.905C378.167 85.884 352.947 87.727 352.947 71.722C352.947 62.798 360.901 57.754 370.698 57.754C381.465 57.754 386.509 63.186 386.509 63.186L382.726 70.267C382.726 70.267 378.361 65.902 370.601 65.902C366.527 65.902 362.55 67.648 362.55 71.916C362.55 80.743 387.77 78.803 387.77 94.905C387.77 103.053 380.786 109.164 370.019 109.164C357.991 109.164 351.395 101.986 351.395 101.986Z" fill="#85E1FF" style="fill:#85E1FF;fill:color(display-p3 0.5216 0.8824 1.0000);fill-opacity:1;"/>
<g clip-path="url(#clip1_4243_1271)">
<path d="M169.751 34.4988C186.946 34.4988 195.481 44.8153 195.481 44.8153L189.251 54.311C184.163 49.2146 177.378 46.3184 170.286 46.2163C156.481 46.2163 146.45 56.8158 146.45 71.3353C146.45 85.8547 156.509 96.6806 170.725 96.6806C183.46 96.6806 191.858 87.1991 191.858 87.1991L197.141 97.1052C197.141 97.1052 187.659 108.426 169.779 108.426C148.248 108.426 133.071 92.6475 133.071 71.4485C133.071 50.5467 148.248 34.4988 169.751 34.4988Z" fill="white" style="fill:white;fill-opacity:1;"/>
<path d="M231.682 34.4988C252.103 34.4988 268.604 49.9836 268.604 71.2999C268.604 92.6161 252.158 108.426 231.682 108.426C211.206 108.426 194.677 92.8567 194.677 71.2999C194.677 49.743 211.247 34.4988 231.682 34.4988ZM231.682 96.7775C244.661 96.7775 255.214 86.1759 255.214 71.3848C255.214 56.5936 244.661 46.261 231.682 46.261C218.703 46.261 208.136 56.7351 208.136 71.3848C208.136 86.0344 218.826 96.6925 231.682 96.6925V96.7775Z" fill="white" style="fill:white;fill-opacity:1;"/>
<path d="M277.471 48.7101H268.605V37.7529H277.92V17.2492H290.559V37.7529H306.902V48.7101H290.559V80.3277C290.559 94.5763 302.435 96.3432 307.405 96.3432C308.442 96.3564 309.478 96.261 310.497 96.0582V108.141C308.979 108.34 307.451 108.435 305.921 108.426C297.191 108.426 277.512 105.576 277.512 81.8666L277.471 48.7101Z" fill="white" style="fill:white;fill-opacity:1;"/>
<path d="M317.89 12.3206H332.675V25.9642H317.89V12.3206ZM318.043 40.1948H332.675V108.426H318.104L318.043 40.1948Z" fill="white" style="fill:white;fill-opacity:1;"/>
<path d="M2.70515 33.4509C0.883028 33.4509 0 34.1798 0 36.044V78.9617C0 80.7698 0.925077 81.5547 2.67712 81.5687C23.4493 81.779 48.4965 63.3476 69.535 48.9669L69.577 -0.664612C48.8469 13.5479 22.9587 33.7453 2.70515 33.4509Z" fill="url(#paint0_linear_4243_1271)" style=""/>
<path d="M111.204 52.6261C113.026 52.6261 113.909 51.8973 113.909 50.0331V7.11536C113.909 5.30726 112.984 4.52236 111.232 4.50834C90.4594 4.2981 65.4122 22.7295 44.3737 37.1101L44.3317 86.7417C65.0618 72.5292 90.95 52.3318 111.204 52.6261Z" fill="url(#paint1_linear_4243_1271)" style=""/>
<path d="M69.5775 49.3498V20.2808C60.9223 25.6152 52.394 31.5381 44.4436 37.0265V65.6067C53.0988 60.2023 61.6694 54.7682 69.5775 49.3498Z" fill="white" style="fill:white;fill-opacity:1;"/>
</g>
</g>
<defs>
<linearGradient id="paint0_linear_4243_1271" x1="63.2392" y1="2.78285" x2="5.44411" y2="81.9178" gradientUnits="userSpaceOnUse">
<stop stop-color="white" stop-opacity="0.3" style="stop-color:white;stop-opacity:0.3;"/>
<stop offset="1" stop-color="white" style="stop-color:white;stop-opacity:1;"/>
</linearGradient>
<linearGradient id="paint1_linear_4243_1271" x1="57.2229" y1="80.3506" x2="113.282" y2="8.97071" gradientUnits="userSpaceOnUse">
<stop stop-color="white" stop-opacity="0.3" style="stop-color:white;stop-opacity:0.3;"/>
<stop offset="1" stop-color="white" style="stop-color:white;stop-opacity:1;"/>
</linearGradient>
<clipPath id="clip0_4243_1271">
<rect width="556" height="128" fill="white" style="fill:white;fill-opacity:1;"/>
</clipPath>
<clipPath id="clip1_4243_1271">
<rect width="332.674" height="108.427" fill="white" style="fill:white;fill-opacity:1;"/>
</clipPath>
</defs>
</svg>
