<svg width="74" height="25" viewBox="0 0 74 25" fill="none" xmlns="http://www.w3.org/2000/svg">
<g clip-path="url(#clip0_21_415)">
<path d="M37.7594 8.13623C41.5841 8.13623 43.4827 10.4197 43.4827 10.4197L42.0969 12.5216C40.9653 11.3935 39.456 10.7525 37.8784 10.7299C34.8077 10.7299 32.5764 13.076 32.5764 16.2899C32.5764 19.5037 34.8138 21.9 37.9761 21.9C40.8088 21.9 42.6769 19.8013 42.6769 19.8013L43.8521 21.994C43.8521 21.994 41.7428 24.4999 37.7655 24.4999C32.9762 24.4999 29.6002 21.0072 29.6002 16.3149C29.6002 11.6884 32.9762 8.13623 37.7594 8.13623Z" fill="white" style="fill:white;fill-opacity:1;"/>
<path d="M51.5352 8.13623C56.0777 8.13623 59.7483 11.5637 59.7483 16.282C59.7483 21.0003 56.0899 24.4999 51.5352 24.4999C46.9805 24.4999 43.3038 21.0536 43.3038 16.282C43.3038 11.5105 46.9897 8.13623 51.5352 8.13623ZM51.5352 21.9214C54.4223 21.9214 56.7697 19.5748 56.7697 16.3008C56.7697 13.0268 54.4223 10.7398 51.5352 10.7398C48.6481 10.7398 46.2976 13.0582 46.2976 16.3008C46.2976 19.5435 48.6756 21.9026 51.5352 21.9026V21.9214Z" fill="white" style="fill:white;fill-opacity:1;"/>
<path d="M61.7206 11.2816H59.7484V8.85631H61.8205V4.31787H64.6318V8.85631H68.2672V11.2816H64.6318V18.2801C64.6318 21.434 67.2735 21.8251 68.3792 21.8251C68.6099 21.828 68.8403 21.8069 69.0669 21.762V24.4365C68.7293 24.4805 68.3893 24.5015 68.049 24.4996C66.1072 24.4996 61.7297 23.8688 61.7297 18.6207L61.7206 11.2816Z" fill="white" style="fill:white;fill-opacity:1;"/>
<path d="M70.7113 3.22705H74.0002V6.247H70.7113V3.22705ZM70.7453 9.39692H74.0002V24.4998H70.7589L70.7453 9.39692Z" fill="white" style="fill:white;fill-opacity:1;"/>
<path d="M0.601734 7.90416C0.196421 7.90416 0 8.06548 0 8.47811V17.9778C0 18.378 0.205774 18.5518 0.595498 18.5549C5.21606 18.6014 10.7876 14.5217 15.4674 11.3386L15.4767 0.352783C10.8655 3.49867 5.10694 7.96931 0.601734 7.90416Z" fill="url(#paint0_linear_21_415)" style=""/>
<path d="M24.7362 12.1486C25.1415 12.1486 25.3379 11.9872 25.3379 11.5746V2.07491C25.3379 1.67469 25.1321 1.50096 24.7424 1.49785C20.1218 1.45131 14.5503 5.53104 9.87053 8.71416L9.86118 19.7C14.4724 16.5541 20.2309 12.0834 24.7362 12.1486Z" fill="url(#paint1_linear_21_415)" style=""/>
<path d="M15.4768 11.4233V4.98901C13.5515 6.16977 11.6545 7.48078 9.88599 8.69563V15.0218C11.8112 13.8255 13.7177 12.6227 15.4768 11.4233Z" fill="white" style="fill:white;fill-opacity:1;"/>
</g>
<defs>
<linearGradient id="paint0_linear_21_415" x1="14.0669" y1="1.11587" x2="1.29346" y2="18.6921" gradientUnits="userSpaceOnUse">
<stop stop-color="white" stop-opacity="0.3" style="stop-color:white;stop-opacity:0.3;"/>
<stop offset="1" stop-color="white" style="stop-color:white;stop-opacity:1;"/>
</linearGradient>
<linearGradient id="paint1_linear_21_415" x1="12.7287" y1="18.2853" x2="25.1226" y2="2.42627" gradientUnits="userSpaceOnUse">
<stop stop-color="white" stop-opacity="0.3" style="stop-color:white;stop-opacity:0.3;"/>
<stop offset="1" stop-color="white" style="stop-color:white;stop-opacity:1;"/>
</linearGradient>
<clipPath id="clip0_21_415">
<rect width="74" height="24" fill="white" style="fill:white;fill-opacity:1;" transform="translate(0 0.5)"/>
</clipPath>
</defs>
</svg>
